# xmcd
#
# Track frame offsets:
#	150
#	10643
#	24917
#	37520
#	48746
#	60212
#	72841
#	86014
#	96956
#	110860
#	122194
#	133919
#	146078
#	158449
#	170936
#	184663
#	198400
#	211328
#	221722
#	236151
#
# Disc length: 3288 seconds
#
# Revision: 0
# Processed by: cddbd v1.5.2PL0 Copyright (c) Steve Scherf et al.
# Submitted via: EasyCDDAExtractor 15.3.0.1
#
DISCID=1f0cd614
DTITLE=Slim Whitman - The Fabulous Slim Whitman
DYEAR=2009
DGENRE=Country
TTITLE0=Rose marie
TTITLE1=Indian Love Call
TTITLE2=Secret Love
TTITLE3=The Singing Hills
TTITLE4=Cattle Call
TTITLE5=North Wind
TTITLE6=Love Song of the Waterfall
TTITLE7=Keep it a Secret
TTITLE8=Danny Boy
TTITLE9=I'm Casting My Losso Towards the Sky
TTITLE10=When it's Spring Time in the Rockies
TTITLE11=My Heart is Broken in Three
TTITLE12=I Leave the Milky Way
TTITLE13=Lord Help Me Be As Thou
TTITLE14=Tumbling Tumbleweeds
TTITLE15=You Have My Heart
TTITLE16=Stairway to Heaven
TTITLE17=I Must Have Been Blind
TTITLE18=Song of the Old Water Wheel
TTITLE19=Serenade
EXTD=
EXTT0=
EXTT1=
EXTT2=
EXTT3=
EXTT4=
EXTT5=
EXTT6=
EXTT7=
EXTT8=
EXTT9=
EXTT10=
EXTT11=
EXTT12=
EXTT13=
EXTT14=
EXTT15=
EXTT16=
EXTT17=
EXTT18=
EXTT19=
PLAYORDER=
